<svg width="780" height="218" viewBox="0 0 780 218" fill="none" xmlns="http://www.w3.org/2000/svg">
<path d="M209.902 88C221.635 88 228.163 101.568 220.841 110.737L160.189 186.678C151.927 197.023 135.25 191.18 135.25 177.941V102C135.25 94.268 141.518 88 149.25 88H209.902Z" fill="#01959F"/>
<path d="M14.4171 99.5949C7.13485 93.9907 7.13487 83.0092 14.4172 77.4051L92.4617 17.3447C101.668 10.2599 115 16.8228 115 28.4396V148.56C115 160.177 101.668 166.74 92.4617 159.655L14.4171 99.5949Z" fill="#FBC037"/>
<circle cx="151.5" cy="47.5" r="22.5" fill="#01959F"/>
<path d="M291.224 54.992V65.84H273.368V122H259.928V65.84H242.072V54.992H291.224ZM297.574 95.216C297.574 89.84 298.63 85.072 300.742 80.912C302.918 76.752 305.83 73.552 309.478 71.312C313.19 69.072 317.318 67.952 321.862 67.952C325.83 67.952 329.286 68.752 332.23 70.352C335.238 71.952 337.638 73.968 339.43 76.4V68.816H352.966V122H339.43V114.224C337.702 116.72 335.302 118.8 332.23 120.464C329.222 122.064 325.734 122.864 321.766 122.864C317.286 122.864 313.19 121.712 309.478 119.408C305.83 117.104 302.918 113.872 300.742 109.712C298.63 105.488 297.574 100.656 297.574 95.216ZM339.43 95.408C339.43 92.144 338.79 89.36 337.51 87.056C336.23 84.688 334.502 82.896 332.326 81.68C330.15 80.4 327.814 79.76 325.318 79.76C322.822 79.76 320.518 80.368 318.406 81.584C316.294 82.8 314.566 84.592 313.222 86.96C311.942 89.264 311.302 92.016 311.302 95.216C311.302 98.416 311.942 101.232 313.222 103.664C314.566 106.032 316.294 107.856 318.406 109.136C320.582 110.416 322.886 111.056 325.318 111.056C327.814 111.056 330.15 110.448 332.326 109.232C334.502 107.952 336.23 106.16 337.51 103.856C338.79 101.488 339.43 98.672 339.43 95.408ZM379.533 50.96V122H366.093V50.96H379.533ZM442.252 94.256C442.252 96.176 442.124 97.904 441.868 99.44H402.988C403.308 103.28 404.652 106.288 407.02 108.464C409.388 110.64 412.3 111.728 415.756 111.728C420.748 111.728 424.3 109.584 426.412 105.296H440.908C439.372 110.416 436.428 114.64 432.076 117.968C427.724 121.232 422.38 122.864 416.044 122.864C410.924 122.864 406.316 121.744 402.22 119.504C398.188 117.2 395.02 113.968 392.716 109.808C390.476 105.648 389.355 100.848 389.355 95.408C389.355 89.904 390.476 85.072 392.716 80.912C394.956 76.752 398.092 73.552 402.124 71.312C406.156 69.072 410.796 67.952 416.044 67.952C421.1 67.952 425.612 69.04 429.58 71.216C433.612 73.392 436.716 76.496 438.892 80.528C441.132 84.496 442.252 89.072 442.252 94.256ZM428.332 90.416C428.268 86.96 427.02 84.208 424.588 82.16C422.156 80.048 419.18 78.992 415.66 78.992C412.332 78.992 409.516 80.016 407.212 82.064C404.972 84.048 403.596 86.832 403.084 90.416H428.332ZM481.534 68.048C487.87 68.048 492.99 70.064 496.894 74.096C500.798 78.064 502.75 83.632 502.75 90.8V122H489.31V92.624C489.31 88.4 488.254 85.168 486.142 82.928C484.03 80.624 481.15 79.472 477.502 79.472C473.79 79.472 470.846 80.624 468.67 82.928C466.558 85.168 465.502 88.4 465.502 92.624V122H452.062V68.816H465.502V75.44C467.294 73.136 469.566 71.344 472.318 70.064C475.134 68.72 478.206 68.048 481.534 68.048ZM531.178 79.856V105.584C531.178 107.376 531.594 108.688 532.426 109.52C533.322 110.288 534.794 110.672 536.842 110.672H543.082V122H534.634C523.306 122 517.642 116.496 517.642 105.488V79.856H511.306V68.816H517.642V55.664H531.178V68.816H543.082V79.856H531.178Z" fill="black"/>
<path d="M608.333 54.992V122H594.893V93.488H566.189V122H552.749V54.992H566.189V82.544H594.893V54.992H608.333ZM671.77 68.816V122H658.234V115.28C656.506 117.584 654.234 119.408 651.418 120.752C648.666 122.032 645.658 122.672 642.394 122.672C638.234 122.672 634.554 121.808 631.354 120.08C628.154 118.288 625.626 115.696 623.77 112.304C621.978 108.848 621.082 104.752 621.082 100.016V68.816H634.522V98.096C634.522 102.32 635.578 105.584 637.69 107.888C639.802 110.128 642.682 111.248 646.33 111.248C650.042 111.248 652.954 110.128 655.066 107.888C657.178 105.584 658.234 102.32 658.234 98.096V68.816H671.77ZM714.502 68.048C720.838 68.048 725.958 70.064 729.862 74.096C733.766 78.064 735.718 83.632 735.718 90.8V122H722.278V92.624C722.278 88.4 721.222 85.168 719.11 82.928C716.998 80.624 714.118 79.472 710.47 79.472C706.758 79.472 703.814 80.624 701.638 82.928C699.526 85.168 698.47 88.4 698.47 92.624V122H685.03V68.816H698.47V75.44C700.262 73.136 702.534 71.344 705.286 70.064C708.102 68.72 711.174 68.048 714.502 68.048ZM764.147 79.856V105.584C764.147 107.376 764.563 108.688 765.395 109.52C766.291 110.288 767.763 110.672 769.811 110.672H776.051V122H767.603C756.275 122 750.611 116.496 750.611 105.488V79.856H744.275V68.816H750.611V55.664H764.147V68.816H776.051V79.856H764.147Z" fill="#01959F"/>
</svg>
